# xmcd CD database file
#
# Track frame offsets:
#	150
#	20342
#	36002
#	56277
#
# Disc length: 951 seconds
#
# Revision: 1
# Processed by: cddbd v1.5.2PL0 Copyright (c) Steve Scherf et al.
# Submitted via: CDex 1.51
#
DISCID=2403b504
DTITLE=C-Major 7 - C-Major 7
DYEAR=1994
DGENRE=Pop
TTITLE0=Cracks in pavement
TTITLE1=Best time of my live
TTITLE2=She
TTITLE3=The green fields of livin'
EXTD=YEAR: 1994
EXTT0=
EXTT1=
EXTT2=
EXTT3=
PLAYORDER=
